inDegrees=no
num_controls=7
num_derivatives=13
num_iterations=114
num_multipliers=7
num_parameters=0
num_slacks=7
num_states=26
objective=5.640445
objective_accelerations=0.261709
objective_balance=0.028709
objective_effort=0.365263
objective_height=4.875602
objective_ligament=0.109162
solver_duration=978.281898
status=Solve_Succeeded
success=true
DataType=double
version=3
OpenSimVersion=4.4-2022-07-23-0e9fedc
endheader
time	/jointset/ground_pelvis/pelvis_tilt/value	/jointset/ground_pelvis/pelvis_tx/value	/jointset/ground_pelvis/pelvis_ty/value	/jointset/hip_r/hip_flexion_r/value	/jointset/hip_r/hip_adduction_r/value	/jointset/hip_r/hip_rotation_r/value	/jointset/back/lumbar_extension/value	/jointset/patellofemoral_r/patellar_flexion_r/value	/jointset/knee_r/knee_flexion_r/value	/jointset/knee_r/knee_adduction_r/value	/jointset/knee_r/knee_rotation_r/value	/jointset/ankle_r/ankle_angle_r/value	/jointset/subtalar_r/subtalar_angle_r/value	/jointset/ground_pelvis/pelvis_tilt/speed	/jointset/ground_pelvis/pelvis_tx/speed	/jointset/ground_pelvis/pelvis_ty/speed	/jointset/hip_r/hip_flexion_r/speed	/jointset/hip_r/hip_adduction_r/speed	/jointset/hip_r/hip_rotation_r/speed	/jointset/back/lumbar_extension/speed	/jointset/patellofemoral_r/patellar_flexion_r/speed	/jointset/knee_r/knee_flexion_r/speed	/jointset/knee_r/knee_adduction_r/speed	/jointset/knee_r/knee_rotation_r/speed	/jointset/ankle_r/ankle_angle_r/speed	/jointset/subtalar_r/subtalar_angle_r/speed	/forceset/tau_hip_flexion_r	/forceset/tau_hip_adduction_r	/forceset/tau_hip_rotation_r	/forceset/tau_knee_flexion_r	/forceset/tau_ankle_angle_r	/forceset/tau_subtalar_angle_r	/forceset/tau_lumbar_extension	lambda_cid13_p0	lambda_cid14_p0	lambda_cid14_p1	lambda_cid14_p2	lambda_cid14_p3	lambda_cid14_p4	lambda_cid14_p5	/jointset/ground_pelvis/pelvis_tilt/accel	/jointset/ground_pelvis/pelvis_tx/accel	/jointset/ground_pelvis/pelvis_ty/accel	/jointset/hip_r/hip_flexion_r/accel	/jointset/hip_r/hip_adduction_r/accel	/jointset/hip_r/hip_rotation_r/accel	/jointset/back/lumbar_extension/accel	/jointset/patellofemoral_r/patellar_flexion_r/accel	/jointset/knee_r/knee_flexion_r/accel	/jointset/knee_r/knee_adduction_r/accel	/jointset/knee_r/knee_rotation_r/accel	/jointset/ankle_r/ankle_angle_r/accel	/jointset/subtalar_r/subtalar_angle_r/accel	gamma_cid13_p0	gamma_cid14_p0	gamma_cid14_p1	gamma_cid14_p2	gamma_cid14_p3	gamma_cid14_p4	gamma_cid14_p5
1.5	-0.03880107247235674	0.09244025138170797	0.898586371138536	0.4822273556488798	-0.2193533464982818	-0.1737264289207771	-0.2594383556849226	0.5268924201087023	0.5268924201089173	0.04221997670997334	0.1745295086567653	0.252158569007571	0.0682819113678745	0.03828493037196394	0.05149062168182668	0.2101855057449601	-0.944423937309688	0.01382309499171924	-0.2161997105496857	0.6937272872353384	-1.439569142017711	-1.439569142017708	0.2768195251787444	-2.880905016003318e-05	-0.6172562756664525	-0.1667175819586545	-0.01606856199778264	-0.01802884892145925	0.001614505911465945	-0.3012832695025977	0.03697278473717257	-0.01429662903215681	0.08827673413542525	-39.57148025520699	-30.50582194211695	-6.985310763930478	-3.640782830884997	5.997305811052717	-671.189037274975	57.7508006834202	-0.04612304900695549	0.1070787938437617	-0.3343753881667919	-0.4096111952353867	-0.08263668057502581	-0.4669755178176835	0.8706693393240889	-0.6909873414288733	-0.6909873414288595	0.3774267672042621	0.001128216563527158	-0.3534752458920151	-0.06895173926963517	7.928195605865126e-08	8.827940294505081e-08	-5.332570366761961e-07	9.135739336896836e-07	1.375399913360584e-08	8.887649498909747e-08	-9.001689626669833e-07
1.51	-0.038420830776174	0.09296042292165171	0.9006710201584741	0.47276417587152	-0.2192199391592339	-0.1759110233609237	-0.2524582700905288	0.5124643454997645	0.5124643454999206	0.04500848751668084	0.1745294142887915	0.245969001427946	0.06661058172297792	0.03775805107926618	0.05253372546778647	0.2067021975540653	-0.9480747824362776	0.0128548009437284	-0.2207040322180128	0.7021871982004855	-1.445832338348031	-1.445832338348014	0.2808654944999281	5.235071317371591e-06	-0.6205698388343425	-0.1675248370266025	-0.01199536455369102	-0.01975132452528051	0.00102556584863545	-0.2987206588665842	0.041773538212002	-0.01518389182087017	0.08426655709396838	-40.0521000014206	-28.91311841507574	-7.020329493547322	-3.7168111308283	5.404319055043405	-669.2482535713049	57.82916939836446	-0.05676498088744029	0.1014365120207593	-0.3616014709761187	-0.3222251752494273	-0.104354078866649	-0.4397340879981327	0.8182569589289711	-0.5619878659937294	-0.5619878659915933	0.4155884953806298	0.003997260390016479	-0.3071741722692362	-0.08307834971996418	8.734836521957431e-08	9.255109031892143e-08	-6.275198551698118e-07	9.450969757185668e-07	1.941797231952492e-08	1.033686897347722e-07	-9.726707162231209e-07
1.52	-0.03804601679520224	0.09349072756766515	0.9027195775092177	0.4632686068421203	-0.2190963004230503	-0.1781401757370881	-0.2453966643897201	0.4979800385100828	0.4979800385101799	0.0478369393127648	0.1745295513121243	0.2397489227526366	0.06493188633556989	0.03719938732709234	0.05351724289576631	0.2029671719060478	-0.9509017877180229	0.0118693744175118	-0.225111297752658	0.7100313085183685	-1.45081561816476	-1.450815618164729	0.2848077230533149	1.746921079872868e-05	-0.623358494803503	-0.1681907304610522	-0.00792216710967133	-0.02147380012909352	0.0004366257859748452	-0.2961580482305977	0.04657429168682754	-0.01607115460957857	0.08025638005245192	-40.4972225210859	-27.3285230823403	-7.05353473978532	-3.796822210331243	4.805471714835886	-667.4460408603804	57.97319472244787	-0.05247994090208502	0.09516152224769292	-0.3847188795913163	-0.2448432262665303	-0.08606317622018667	-0.4475642910813024	0.7475092098713785	-0.4350040387105958	-0.4350040387105996	0.3566786136448392	-0.00323377983564676	-0.2484938061461794	-0.04067941256998327	9.590104082455409e-08	9.713187362516041e-08	-7.252914805387661e-07	9.773997778271144e-07	2.516493548983027e-08	1.190369773667086e-07	-1.046483037396462e-06
1.53	-0.03767687754591419	0.0940305701858113	0.9047295991294608	0.4537487003672903	-0.2189826424438568	-0.180413095668058	-0.2382597961158645	0.4834521585775581	0.4834521585775348	0.05070433110804547	0.1745298820784291	0.2335035251618759	0.06324716851749805	0.03662067236073609	0.05444097436492117	0.1990003302265372	-0.9529424743506537	0.01086043137851389	-0.2294558728909363	0.7172399952684549	-1.454550651488378	-1.454550651488361	0.2886508449403488	4.349611527743951e-05	-0.6256340741755892	-0.1687287350853737	-0.003776529567241209	-0.02326289762969922	-0.0001407731769705816	-0.2937406162137091	0.05158111271665333	-0.01712958585643838	0.07621792413383885	-40.90586795070172	-25.69461849616723	-7.162409707252682	-3.853386487489139	4.192393597034889	-665.7638577471414	58.01771260832281	-0.06172685723776987	0.08943982846236803	-0.4081610971565989	-0.1631155051197337	-0.1084826566941911	-0.4252075792963765	0.6921957602129606	-0.311317416434798	-0.3113174164369983	0.3951154281638005	0.004914386575701219	-0.2040301842929329	-0.0567631621836562	1.049703745263441e-07	1.020410713595408e-07	-8.267912132127674e-07	1.010531075020305e-06	3.100007551854601e-08	1.359548636902981e-07	-1.121687836663082e-06
